<?xml version="1.0" encoding="UTF-8"?>
<svg version="1.1" xmlns="http://www.w3.org/2000/svg" width="500" height="500">
<path d="M0 0 C0.60533066 0.26534042 1.21066132 0.53068085 1.83433533 0.80406189 C3.11403981 1.3654021 4.39267493 1.92918583 5.67028809 2.49526978 C8.79982268 3.88004886 11.93974751 5.24088223 15.078125 6.60546875 C16.34056469 7.15543854 17.60293418 7.70556949 18.86523438 8.25585938 C19.80556519 8.6656604 19.80556519 8.6656604 20.76489258 9.08374023 C22.03577058 9.63823107 23.3062777 10.19357274 24.57641602 10.74975586 C32.2446159 14.10600525 39.93440917 17.3118604 47.79858398 20.19116211 C50.59937724 21.3490442 53.03257212 22.75963195 55.60546875 24.3515625 C57.58937638 25.16291603 59.59118456 25.93136663 61.60546875 26.6640625 C66.20437381 28.3886519 70.6640077 30.25480479 75.10546875 32.3515625 C80.47788091 34.88242172 85.92133563 37.04431681 91.4765625 39.13671875 C95.37423898 40.65004882 99.17165219 42.3230124 102.953125 44.10546875 C104.77744479 44.96254977 106.62027584 45.78095707 108.4765625 46.56640625 C115.28843648 49.59068505 115.28843648 49.59068505 116.85546875 53.3515625 C116.41844585 58.59583731 116.41844585 58.59583731 114.60546875 61.3515625 C110.56042258 64.08524707 105.83682825 65.67583078 101.32421875 67.47265625 C100.43669922 67.82642334 99.54917969 68.18019043 98.63476562 68.54467773 C97.96509766 68.81094971 97.29542969 69.07722168 96.60546875 69.3515625 C96.47840857 76.62879742 96.39100784 83.90574495 96.33081055 91.18383789 C96.30570872 93.65823049 96.27162006 96.13254925 96.22827148 98.60668945 C96.16743289 102.16896817 96.13921444 105.73026423 96.1171875 109.29296875 C96.09138107 110.39427628 96.06557465 111.4955838 96.03898621 112.63026428 C96.03677728 118.716491 96.51008185 122.09140525 100.46287537 126.7519989 C102.48576325 129.58392307 102.27274705 132.47454452 102.3046875 135.859375 C102.3118428 136.54788544 102.31899811 137.23639587 102.32637024 137.94577026 C102.33409917 139.38945231 102.32923752 140.83325261 102.31225586 142.27685547 C102.29294057 144.47977693 102.33255078 146.67645161 102.37695312 148.87890625 C102.37724338 150.28906623 102.37410615 151.69923197 102.3671875 153.109375 C102.36658325 155.01420654 102.36658325 155.01420654 102.3659668 156.95751953 C101.31182568 161.66206842 99.52688501 162.66303578 95.60546875 165.3515625 C92.14946349 167.07956513 88.39127288 166.70847333 84.60546875 166.3515625 C80.36108798 164.77956962 77.90194387 163.24689107 75.60546875 159.3515625 C75.05317226 155.09671037 75.13257962 150.84999362 75.15942383 146.56201172 C75.16791556 144.48954319 75.13919192 142.41985138 75.10742188 140.34765625 C75.10838867 138.37345703 75.10838867 138.37345703 75.109375 136.359375 C75.10752197 135.15941895 75.10566895 133.95946289 75.10375977 132.72314453 C75.70394297 128.68979657 77.15527301 126.56878349 79.60546875 123.3515625 C81.68929737 120.22581957 81.86436834 119.44703695 81.92431641 115.88012695 C81.9441861 114.97941971 81.96405579 114.07871246 81.98452759 113.15071106 C81.9960788 112.18187485 82.00763 111.21303864 82.01953125 110.21484375 C82.0388974 109.22026657 82.05826355 108.22568939 82.07821655 107.20097351 C82.13803034 104.0220906 82.18440514 100.84317152 82.23046875 97.6640625 C82.26864685 95.50974977 82.30769848 93.35545233 82.34765625 91.20117188 C82.44373326 85.91810441 82.52877549 80.63494497 82.60546875 75.3515625 C78.50023318 77.07819894 74.39648447 78.80834309 70.29296875 80.5390625 C69.14505859 81.02181641 67.99714844 81.50457031 66.81445312 82.00195312 C60.5397291 84.65049103 54.31276116 87.37556304 48.12231445 90.21508789 C44.40351571 91.89430102 40.63665769 93.44422327 36.85546875 94.9765625 C30.31636831 97.64019607 23.80732656 100.35624781 17.35546875 103.2265625 C16.21658203 103.73123047 16.21658203 103.73123047 15.0546875 104.24609375 C13.34169543 105.01926242 11.63648801 105.80980669 9.9375 106.61328125 C-3.76197492 113.04759035 -15.67779482 116.41797996 -30.39453125 111.3515625 C-35.17207862 109.45968319 -39.8421218 107.33024215 -44.51513672 105.19628906 C-47.13697125 104.01785993 -49.79429531 102.93385894 -52.45703125 101.8515625 C-57.75525061 99.66866721 -62.92258161 97.25048477 -68.10083008 94.80126953 C-71.2455562 93.32307334 -74.37521185 91.9056613 -77.64453125 90.7265625 C-80.58296692 89.64913609 -83.32626557 88.48866629 -86.15625 87.171875 C-90.70159066 85.09157415 -95.28283882 83.11366957 -99.8984375 81.1953125 C-100.55337189 80.92288727 -101.20830627 80.65046204 -101.88308716 80.36978149 C-104.58750491 79.24652423 -107.29291893 78.12571619 -109.99975586 77.00830078 C-117.22555938 74.02220212 -124.38654435 71.00743378 -131.32250977 67.3815918 C-134.5837996 65.76036147 -137.97190845 64.59078799 -141.39453125 63.3515625 C-144.33685009 62.2675503 -145.115504 61.82989493 -146.70703125 59.1015625 C-147.51874056 55.85472528 -147.14653138 53.58516307 -146.39453125 50.3515625 C-145.73453125 50.3515625 -145.07453125 50.3515625 -144.39453125 50.3515625 C-144.39453125 49.6915625 -144.39453125 49.0315625 -144.39453125 48.3515625 C-143.58371094 48.04863281 -142.77289063 47.74570313 -141.9375 47.43359375 C-140.83019531 47.01464844 -139.72289062 46.59570312 -138.58203125 46.1640625 C-137.50308594 45.75800781 -136.42414063 45.35195312 -135.3125 44.93359375 C-132.27398957 43.74307566 -129.31544049 42.4160773 -126.3515625 41.05078125 C-118.99584198 37.67524104 -111.49971974 34.64360381 -104.01025391 31.58105469 C-96.98464761 28.70503276 -90.00762694 25.7602664 -83.11132812 22.58447266 C-78.08226423 20.30223212 -72.98502887 18.17981527 -67.89453125 16.0390625 C-66.76394287 15.56194824 -65.63335449 15.08483398 -64.46850586 14.59326172 C-59.27079891 12.40069157 -54.07042479 10.21456772 -48.8671875 8.03515625 C-48.03678955 7.68694824 -47.2063916 7.33874023 -46.35083008 6.97998047 C-44.77695116 6.32025152 -43.20258294 5.66168847 -41.62768555 5.00439453 C-37.4319921 3.24444825 -33.31075887 1.38183353 -29.20703125 -0.5859375 C-19.36866333 -5.08131484 -9.76593779 -4.31739197 0 0 Z " fill="#040404" transform="translate(265.39453125,80.6484375)"/>
<path d="M0 0 C3.36538968 0.67307794 5.78007403 1.18867845 8.8203125 2.453125 C9.51479492 2.74010254 10.20927734 3.02708008 10.92480469 3.32275391 C11.65086914 3.62874512 12.37693359 3.93473633 13.125 4.25 C14.26050293 4.72252197 14.26050293 4.72252197 15.41894531 5.20458984 C19.56410755 6.93983565 23.67195931 8.73634989 27.75 10.625 C32.66500036 12.90032543 37.67774337 14.83437102 42.7421875 16.75 C48.89962624 19.11256642 54.959905 21.71109374 61.03125 24.28515625 C63.04145327 25.13223933 65.05578146 25.96960368 67.07421875 26.796875 C68.96254373 27.57338247 70.84125831 28.37389258 72.70703125 29.203125 C83.99992963 33.89885434 94.13725828 32.94357712 105.23999023 28.48901367 C107.16997223 27.68033313 109.08702196 26.84803713 111 26 C112.00160156 25.55914062 113.00320313 25.11828125 114.03515625 24.6640625 C115.82552003 23.85517872 117.61086631 23.0350832 119.390625 22.203125 C123.05312831 20.51442587 126.77564757 18.98609522 130.50390625 17.44921875 C133.18374818 16.3383569 135.85713119 15.2156382 138.52734375 14.08203125 C163.75534524 3.37571128 163.75534524 3.37571128 171 2 C171.07628074 8.70768928 171.12869663 15.41526601 171.16479492 22.12329102 C171.17984918 24.40360698 171.20029708 26.68389414 171.22631836 28.96411133 C171.26284894 32.24828209 171.27976039 35.53206885 171.29296875 38.81640625 C171.30845261 39.83021866 171.32393646 40.84403107 171.33988953 41.88856506 C171.34162837 49.25905156 170.13000031 53.80499954 166 60 C165.34 60 164.68 60 164 60 C164 60.66 164 61.32 164 62 C125.38646038 85.2244939 71.98314394 83.49808329 29.1875 73.25 C20.02983663 70.68979304 11.73038831 66.82012682 5 60 C1.17731864 60 -1.30572737 62.50286927 -4 65 C-7.42415652 69.05388646 -9.57476156 72.84721486 -11 78 C-11.34109299 78.91106506 -11.68218597 79.82213013 -12.03361511 80.76080322 C-13.07705291 84.25827136 -13.26023907 87.12018514 -13.2746582 90.76464844 C-13.27976913 91.41270447 -13.28488007 92.0607605 -13.29014587 92.72845459 C-13.30396251 94.85552398 -13.30309053 96.98226626 -13.30078125 99.109375 C-13.30467383 100.60142129 -13.30900965 102.09346647 -13.31376648 103.58551025 C-13.32121263 106.70906162 -13.32095006 109.83249995 -13.31567383 112.95605469 C-13.30989513 116.93463888 -13.32677888 120.9127551 -13.3500185 124.89126205 C-13.36484399 127.97302908 -13.36561541 131.05468586 -13.36250877 134.13648224 C-13.36301803 135.6019203 -13.3681804 137.06736518 -13.37832069 138.53276825 C-13.44010325 148.71309053 -13.16251341 158.45409623 -6.875 166.9375 C-5.06820337 169.41397996 -3.98075576 171.05773273 -3 174 C-1.15242892 175.0855914 -1.15242892 175.0855914 1 176 C2.29964797 176.8208303 3.59127022 177.65449123 4.875 178.5 C14.52633437 184.55434259 25.03589228 184.14456331 36.07057571 184.19923019 C38.26567408 184.21114988 40.46058698 184.23062965 42.65560913 184.25234985 C48.89078592 184.31356178 55.12593424 184.36806585 61.36132812 184.40136719 C65.18975528 184.42235294 69.01782684 184.45767063 72.84605026 184.50212479 C74.29799589 184.51623547 75.75000422 184.52499604 77.20201492 184.52817917 C79.23322438 184.53310787 81.26435586 184.55791097 83.29541016 184.58349609 C84.44820465 184.59158295 85.60099915 184.5996698 86.78872681 184.60800171 C92.63828224 185.32205361 96.53615874 188.187238 100.75 192.125 C103.64831746 194.890898 103.64831746 194.890898 107 197 C107 197.66 107 198.32 107 199 C107.66 199 108.32 199 109 199 C109 199.66 109 200.32 109 201 C109.56203125 201.25523437 110.1240625 201.51046875 110.703125 201.7734375 C113.29386482 203.15692781 115.45107845 204.79938583 117.75 206.625 C118.54921875 207.25664062 119.3484375 207.88828125 120.171875 208.5390625 C120.77515625 209.02117187 121.3784375 209.50328125 122 210 C121.98259766 208.49759766 121.98259766 208.49759766 121.96484375 206.96484375 C121.95545602 205.62239772 121.94635688 204.27994964 121.9375 202.9375 C121.92589844 201.62652344 121.91429687 200.31554687 121.90234375 198.96484375 C122.15181861 188.83616436 122.15181861 188.83616436 124.6887207 186.33520508 C127.52301843 184.697857 129.46428344 184.56303709 132.7265625 184.4453125 C134.39912109 184.35830078 134.39912109 184.35830078 136.10546875 184.26953125 C138.42811466 184.17415067 140.75104651 184.08546722 143.07421875 184.00390625 C149.98219063 183.63114543 154.99225387 182.57764773 160.98974609 179.05419922 C163 178 163 178 166 178 C166 177.34 166 176.68 166 176 C167.35546875 174.7734375 167.35546875 174.7734375 169.1875 173.375 C175.98294546 167.69153653 179.21188682 160.5771161 181 152 C181.42991331 147.16381303 181.464432 142.34932678 181.4765625 137.49609375 C181.49090227 136.12271114 181.50666454 134.74934273 181.52377319 133.37599182 C181.56527538 129.79428903 181.59051276 126.21267445 181.61126709 122.63079834 C181.64735405 116.86730949 181.70796469 111.10403685 181.76975632 105.34077644 C181.78885483 103.33045329 181.80006468 101.32006023 181.81118774 99.30967712 C181.82144989 98.10074295 181.83171204 96.89180878 181.84228516 95.64624023 C181.84878082 94.57719955 181.85527649 93.50815887 181.86196899 92.40672302 C182 90 182 90 183 89 C185.16480797 88.9010706 187.33293785 88.870289 189.5 88.875 C190.6859375 88.87242187 191.871875 88.86984375 193.09375 88.8671875 C196 89 196 89 197 90 C197.11491533 91.84771218 197.15966172 93.69982439 197.17700195 95.55102539 C197.19625481 97.33537743 197.19625481 97.33537743 197.21589661 99.15577698 C197.22328354 100.45659714 197.23067047 101.7574173 197.23828125 103.09765625 C197.24235678 103.76078764 197.2464323 104.42391903 197.25063133 105.10714531 C197.27154913 108.6333574 197.28581239 112.1595302 197.29516602 115.68579102 C197.30394447 118.5769614 197.32461208 121.46763828 197.35668945 124.35864258 C197.73865382 159.51350371 197.73865382 159.51350371 191 172 C190.34 172 189.68 172 189 172 C189 172.99 189 173.98 189 175 C188.34 175 187.68 175 187 175 C186.773125 175.70125 186.54625 176.4025 186.3125 177.125 C181.62051396 187.4026837 171.20806304 193.04837784 161.08203125 197 C153.08834374 199.59364259 145.33372926 200.11416067 137 200 C137.02094727 200.89307861 137.04189453 201.78615723 137.06347656 202.70629883 C137.13167346 206.02183343 137.18180815 209.33662239 137.21972656 212.65258789 C137.23983525 214.08727786 137.26712673 215.52188593 137.30175781 216.95629883 C137.3503146 219.01924839 137.37297406 221.08111431 137.390625 223.14453125 C137.41157227 224.38565674 137.43251953 225.62678223 137.45410156 226.90551758 C137 230 137 230 135.21386719 231.8972168 C131.81208836 233.59172881 128.65746857 233.74642216 125 233 C122.23386146 231.59348888 120.37212475 230.07560916 118 228 C118 227.34 118 226.68 118 226 C117.42765625 225.731875 116.8553125 225.46375 116.265625 225.1875 C113.92115366 223.95867364 111.87595062 222.57477824 109.75 221 C109.04359375 220.484375 108.3371875 219.96875 107.609375 219.4375 C107.07828125 218.963125 106.5471875 218.48875 106 218 C106 217.34 106 216.68 106 216 C105.38125 215.690625 104.7625 215.38125 104.125 215.0625 C102.75 214.375 101.375 213.6875 100 213 C100 212.34 100 211.68 100 211 C98.35 210.34 96.7 209.68 95 209 C95 208.34 95 207.68 95 207 C94.1028125 206.566875 94.1028125 206.566875 93.1875 206.125 C91 205 91 205 88 203 C88 202.34 88 201.68 88 201 C87.25212723 200.98969254 86.50425446 200.97938507 85.73371887 200.96876526 C78.62980578 200.87012833 71.52596294 200.76753019 64.42216969 200.66066074 C60.77146315 200.60587447 57.12074827 200.55253395 53.4699707 200.50268555 C49.93615099 200.45437777 46.40241075 200.40202687 42.86868858 200.34705925 C40.88774322 200.31724475 38.90673871 200.29144543 36.92573547 200.26576233 C17.9277734 199.96025793 1.42462936 198.24733792 -13.30859375 184.91015625 C-15 183 -15 183 -15 181 C-15.66 181 -16.32 181 -17 181 C-28.22086078 167.72732468 -29.31994738 151.4599722 -29.30078125 134.8125 C-29.30468213 133.37866088 -29.30901958 131.94482289 -29.31376648 130.51098633 C-29.32116929 127.52584055 -29.32098031 124.54081318 -29.31567383 121.55566406 C-29.30987546 117.76352819 -29.32684787 113.97188017 -29.3500185 110.17982483 C-29.36487028 107.22494763 -29.36561234 104.27018502 -29.36250877 101.3152771 C-29.36301587 99.9184777 -29.36813616 98.52167081 -29.37832069 97.12490845 C-29.44947363 86.00923087 -28.22762311 75.84592855 -23.3125 65.75 C-22.87550781 64.83734375 -22.43851563 63.9246875 -21.98828125 62.984375 C-21.66214844 62.32953125 -21.33601562 61.6746875 -21 61 C-20.34 61 -19.68 61 -19 61 C-18.773125 60.46375 -18.54625 59.9275 -18.3125 59.375 C-14.90948705 53.21716704 -9.97524143 48.64691674 -4 45 C-2.02 44.505 -2.02 44.505 0 44 C0 29.48 0 14.96 0 0 Z " fill="#060606" transform="translate(162,174)"/>
<path d="M0 0 C3.85432136 1.78950635 5.49773376 3.26334285 7.875 6.75 C9.73575487 12.12551408 9.93591692 16.68083502 7.5 21.8125 C5.33896671 25.12608438 2.9729262 26.49316579 -0.7734375 27.63671875 C-6.04288008 28.49646991 -10.56076618 27.95948921 -15 25 C-15 24.34 -15 23.68 -15 23 C-15.66 23 -16.32 23 -17 23 C-19.8089123 18.21361343 -19.64116812 13.40301424 -19 8 C-14.84509315 -0.45820322 -8.74325639 -1.01371089 0 0 Z " fill="#0E0E0E" transform="translate(255,285)"/>
<path d="M0 0 C3.96524671 2.29795833 6.47810189 5.21715283 9 9 C9.265625 11.33984375 9.265625 11.33984375 9.25 13.9375 C9.25515625 14.79214844 9.2603125 15.64679688 9.265625 16.52734375 C8.98713633 19.11974567 8.30669172 20.76514234 7 23 C6.34 23 5.68 23 5 23 C5 23.66 5 24.32 5 25 C-0.23214062 28.30450987 -4.97032702 28.8973928 -11 28 C-15.35358836 25.59163197 -17.30531179 22.63809404 -19 18 C-19.79762653 12.53680462 -18.87483565 8.79139275 -16 4 C-15.34 4 -14.68 4 -14 4 C-14 3.34 -14 2.68 -14 2 C-9.43292868 -0.60375561 -5.14730169 -0.92509109 0 0 Z " fill="#0D0D0D" transform="translate(208,285)"/>
<path d="M0 0 C3.65140686 1.87251634 5.73486935 4.60230402 8 8 C9.05237355 12.668424 9.5597309 16.66730739 7.6875 21.125 C7.130625 21.74375 6.57375 22.3625 6 23 C5.34 23 4.68 23 4 23 C3.67 23.99 3.34 24.98 3 26 C-1.60635846 28.57414149 -6.34564114 28.54448387 -11.4375 27.5 C-11.953125 27.335 -12.46875 27.17 -13 27 C-13 26.34 -13 25.68 -13 25 C-14.32 24.34 -15.64 23.68 -17 23 C-17 22.34 -17 21.68 -17 21 C-17.66 21 -18.32 21 -19 21 C-20.07119465 14.48597845 -20.01909053 10.03818105 -17 4 C-16.34 4 -15.68 4 -15 4 C-15 3.34 -15 2.68 -15 2 C-10.22146468 -0.79308755 -5.39128224 -0.78021451 0 0 Z " fill="#0D0D0D" transform="translate(302,285)"/>
<path d="M0 0 C0.66 0 1.32 0 2 0 C0.61811547 3.21043882 -0.92421903 5.04936365 -3.625 7.25 C-4.57246094 8.03117188 -4.57246094 8.03117188 -5.5390625 8.828125 C-6.02117187 9.21484375 -6.50328125 9.6015625 -7 10 C-5.15014033 6.06048404 -2.92434659 3.21678125 0 0 Z M-9 10 C-8.01 10.495 -8.01 10.495 -7 11 C-7.99 11.495 -7.99 11.495 -9 12 C-9 11.34 -9 10.68 -9 10 Z " fill="#4C4C4C" transform="translate(150,225)"/>
</svg>
